HIERARCHY
ROOT Hips
{
	OFFSET 0.00000 0.00000 0.00000
	CHANNELS 6 Xposition Yposition Zposition Zrotation Yrotation Xrotation 
	JOINT LHipJoint
	{
		OFFSET 0 0 0
		CHANNELS 3 Zrotation Yrotation Xrotation
		JOINT LeftUpLeg
		{
			OFFSET 1.54859 -1.61379 0.86856
			CHANNELS 3 Zrotation Yrotation Xrotation
			JOINT LeftLeg
			{
				OFFSET 2.25087 -6.18423 0.00000
				CHANNELS 3 Zrotation Yrotation Xrotation
				JOINT LeftFoot
				{
					OFFSET 2.40328 -6.60297 0.00000
					CHANNELS 3 Zrotation Yrotation Xrotation
					JOINT LeftToeBase
					{
						OFFSET 0.17435 -0.47901 2.02453
						CHANNELS 3 Zrotation Yrotation Xrotation
						End Site
						{
							OFFSET 0.00000 -0.00000 1.04844
						}
					}
				}
			}
		}
	}
	JOINT RHipJoint
	{
		OFFSET 0 0 0
		CHANNELS 3 Zrotation Yrotation Xrotation
		JOINT RightUpLeg
		{
			OFFSET -1.54669 -1.61379 0.86856
			CHANNELS 3 Zrotation Yrotation Xrotation
			JOINT RightLeg
			{
				OFFSET -2.28132 -6.26789 0.00000
				CHANNELS 3 Zrotation Yrotation Xrotation
				JOINT RightFoot
				{
					OFFSET -2.51636 -6.91365 0.00000
					CHANNELS 3 Zrotation Yrotation Xrotation
					JOINT RightToeBase
					{
						OFFSET -0.15124 -0.41552 2.21090
						CHANNELS 3 Zrotation Yrotation Xrotation
						End Site
						{
							OFFSET -0.00000 -0.00000 1.13399
						}
					}
				}
			}
		}
	}
	JOINT LowerBack
	{
		OFFSET 0 0 0
		CHANNELS 3 Zrotation Yrotation Xrotation
		JOINT Spine
		{
			OFFSET -0.04287 2.26161 -0.25690
			CHANNELS 3 Zrotation Yrotation Xrotation
			JOINT Spine1
			{
				OFFSET 0.02248 2.28395 -0.10140
				CHANNELS 3 Zrotation Yrotation Xrotation
				JOINT Neck
				{
					OFFSET 0 0 0
					CHANNELS 3 Zrotation Yrotation Xrotation
					JOINT Neck1
					{
						OFFSET -0.11644 1.38496 0.11345
						CHANNELS 3 Zrotation Yrotation Xrotation
						JOINT Head
						{
							OFFSET 0.29383 1.36600 0.06642
							CHANNELS 3 Zrotation Yrotation Xrotation
							End Site
							{
								OFFSET 0.11075 1.41395 -0.00294
							}
						}
					}
				}
				JOINT LeftShoulder
				{
					OFFSET 0 0 0
					CHANNELS 3 Zrotation Yrotation Xrotation
					JOINT LeftArm
					{
						OFFSET 3.51628 0.59542 -0.30346
						CHANNELS 3 Zrotation Yrotation Xrotation
						JOINT LeftForeArm
						{
							OFFSET 4.76405 -0.00000 0.00000
							CHANNELS 3 Zrotation Yrotation Xrotation
							JOINT LeftHand
							{
								OFFSET 3.13759 -0.00000 -0.00000
								CHANNELS 3 Zrotation Yrotation Xrotation
								JOINT LeftFingerBase
								{
									OFFSET 0 0 0
									CHANNELS 3 Zrotation Yrotation Xrotation
									JOINT LeftHandIndex1
									{
										OFFSET 0.73226 -0.00000 -0.00000
										CHANNELS 3 Zrotation Yrotation Xrotation
										End Site
										{
											OFFSET 0.59037 -0.00000 -0.00000
										}
									}
								}
								JOINT LThumb
								{
									OFFSET 0 0 0
									CHANNELS 3 Zrotation Yrotation Xrotation
									End Site
									{
										OFFSET 0.59938 -0.00000 0.59938
									}
								}
							}
						}
					}
				}
				JOINT RightShoulder
				{
					OFFSET 0 0 0
					CHANNELS 3 Zrotation Yrotation Xrotation
					JOINT RightArm
					{
						OFFSET -3.30990 0.84213 -0.36430
						CHANNELS 3 Zrotation Yrotation Xrotation
						JOINT RightForeArm
						{
							OFFSET -5.10161 -0.00000 -0.00000
							CHANNELS 3 Zrotation Yrotation Xrotation
							JOINT RightHand
							{
								OFFSET -3.23267 -0.00000 -0.00000
								CHANNELS 3 Zrotation Yrotation Xrotation
								JOINT RightFingerBase
								{
									OFFSET 0 0 0
									CHANNELS 3 Zrotation Yrotation Xrotation
									JOINT RightHandIndex1
									{
										OFFSET -0.70200 -0.00000 -0.00000
										CHANNELS 3 Zrotation Yrotation Xrotation
										End Site
										{
											OFFSET -0.56597 -0.00000 -0.00000
										}
									}
								}
								JOINT RThumb
								{
									OFFSET 0 0 0
									CHANNELS 3 Zrotation Yrotation Xrotation
									End Site
									{
										OFFSET -0.57461 -0.00000 0.57461
									}
								}
							}
						}
					}
				}
			}
		}
	}
}
MOTION
Frames: 15
Frame Time: .0083333
3.6362 15.5073 7.9082 20.4233 54.4441 19.1888 0.0000 0.0000 0.0000 -20.3540 3.8879 -6.4323 5.0633 13.4547 41.0953 -0.3826 -11.5706 0.0649 5.5626 -13.9906 -43.1999 0.0000 0.0000 0.0000 16.7945 2.3484 -37.7314 -20.0924 -19.9998 90.2701 -0.4251 -4.9281 -15.1163 -0.2228 3.0384 -8.3857 -7.7595 4.4793 11.5899 -0.7596 5.5001 8.2459 2.9641 2.5902 1.6006 -14.8115 -8.5575 1.3804 21.7730 -9.8819 -14.4633 9.4158 -5.2017 -2.3751 0.0000 -0.0000 0.0000 -78.1799 6.4799 -6.8972 102.6800 -59.3837 -70.9585 -0.0000 0.0000 -39.8133 0.9087 31.6501 0.4769 -7.1250 0.0000 -0.0000 -34.2819 58.1602 -11.9439 0.0000 -0.0000 0.0000 80.1481 -2.1356 3.8081 -25.1697 36.3770 -8.3904 0.0000 -0.0000 -0.9288 -54.2422 43.0137 -43.4506 7.1250 -0.0000 -0.0000 -7.5588 27.5722 -10.2570
4.1094 15.5790 8.2637 21.1785 54.3953 19.5204 0.0000 0.0000 0.0000 -20.3229 4.7984 -3.5934 4.6177 12.9399 39.1440 -0.3561 -10.5193 4.4102 5.0888 -13.4831 -41.2050 0.0000 0.0000 0.0000 15.8490 1.8694 -39.1377 -19.1019 -19.9806 87.3732 -0.4445 -4.8467 -15.3088 -0.2274 3.0697 -8.4730 -7.9867 4.2936 11.4110 -0.8262 5.2544 8.2362 3.0629 2.4568 1.7039 -14.6428 -8.4276 1.3229 21.5642 -9.7628 -14.0241 9.2996 -5.1347 -2.2885 -0.0000 -0.0000 0.0000 -76.4111 7.5238 -7.6605 98.3719 -59.7335 -67.2438 -0.0000 0.0000 -38.4034 -0.3318 30.6560 -0.1692 -7.1250 0.0000 -0.0000 -34.5774 57.0757 -11.1305 -0.0000 -0.0000 0.0000 80.2730 -3.1842 3.3021 -25.7539 36.9646 -8.7392 0.0000 -0.0000 -1.2643 -53.8317 42.6798 -42.8400 7.1250 -0.0000 -0.0000 -7.5275 27.0180 -10.1835
4.5843 15.6538 8.6249 21.7581 54.4382 19.7865 0.0000 0.0000 0.0000 -20.1202 5.5093 -0.7572 4.1305 12.3320 36.9168 -0.1577 -8.8855 9.0520 4.4389 -12.7227 -38.3390 0.0000 0.0000 0.0000 15.1057 1.3151 -40.3757 -17.9605 -19.9000 84.0274 -0.4424 -4.8200 -15.2616 -0.3677 3.8951 -10.7816 -8.2016 4.0877 11.2020 -0.8051 4.9820 8.1973 3.2487 2.3081 1.7897 -14.4093 -8.3514 0.9921 21.3058 -9.7074 -13.4195 9.1306 -5.0841 -2.1029 0.0000 0.0000 0.0000 -74.7600 8.5992 -8.0480 93.7073 -59.9480 -63.2101 -0.0000 0.0000 -38.1476 -3.6443 31.0276 -1.8803 -7.1250 0.0000 -0.0000 -38.0148 56.6869 -12.0898 0.0000 0.0000 0.0000 80.2322 -3.9943 2.9640 -26.1649 37.3711 -8.9876 0.0000 -0.0000 -1.2473 -53.8024 42.2497 -42.5751 7.1250 -0.0000 -0.0000 -7.7082 26.5886 -10.4060
5.0645 15.7263 8.9902 22.0529 54.6195 19.9166 0.0000 0.0000 0.0000 -19.6789 5.9763 2.0631 3.6406 11.6662 34.5611 0.1735 -6.9845 13.3082 3.7075 -11.7606 -34.8903 0.0000 0.0000 0.0000 14.6160 0.7818 -41.4452 -16.6986 -19.7367 80.3065 -0.4409 -4.6507 -15.1162 -0.4292 4.2046 -11.6529 -8.2810 3.7776 10.8724 -0.6447 4.5856 8.0889 3.5228 2.0980 1.8794 -15.1702 -7.7085 1.2016 21.3138 -9.0091 -12.4973 9.2705 -4.7073 -1.9661 0.0000 -0.0000 0.0000 -73.4300 9.8484 -8.3170 89.0299 -59.9964 -59.1599 -0.0000 0.0000 -39.2862 -6.0274 31.4392 -3.1523 -7.1250 0.0000 -0.0000 -40.5852 56.5166 -12.9300 0.0000 -0.0000 0.0000 79.8477 -4.8536 3.2157 -26.5724 37.7684 -9.2360 0.0000 -0.0000 -1.4807 -54.0036 41.9323 -42.6107 7.1250 -0.0000 -0.0000 -7.9414 26.3987 -10.7132
5.5558 15.7961 9.3564 22.1615 54.8021 19.8927 0.0000 0.0000 0.0000 -19.1635 6.2883 4.9907 3.2036 11.0176 32.3394 0.4606 -5.4230 15.9554 3.2754 -11.1281 -32.7130 0.0000 0.0000 0.0000 14.2129 0.2974 -42.1726 -15.3161 -19.4657 76.1870 -0.4512 -4.1145 -14.8685 -0.3235 3.6561 -10.1111 -8.0101 3.4900 10.3856 -0.6094 4.2682 8.0417 3.4724 1.9373 2.1407 -15.5674 -7.4862 0.5008 21.8538 -8.7587 -11.2108 9.4457 -4.5354 -1.4717 -0.0000 0.0000 0.0000 -71.8812 10.7617 -8.3492 84.2428 -59.8744 -55.0162 -0.0000 0.0000 -41.6203 -7.0125 32.2755 -3.7580 -7.1250 0.0000 -0.0000 -42.2772 56.9535 -14.0870 -0.0000 0.0000 0.0000 79.6727 -5.5971 3.6256 -27.0476 38.2246 -9.5286 0.0000 -0.0000 -2.0163 -54.0154 41.6869 -42.4864 7.1250 -0.0000 -0.0000 -8.0557 26.1677 -10.8551
6.0501 15.8687 9.7203 22.1741 54.9639 19.8109 0.0000 0.0000 0.0000 -18.6734 6.5112 8.0017 2.8205 10.3987 30.2777 0.5629 -4.6045 16.6008 3.2135 -11.0329 -32.3909 0.0000 0.0000 0.0000 14.0576 -0.4222 -42.8674 -13.8760 -19.0760 71.8256 -0.3914 -4.3798 -14.2471 -0.8421 5.8533 -16.3593 -7.6035 3.2286 9.8374 -0.6265 3.9997 8.0170 3.2866 1.8060 2.4629 -15.0521 -7.3009 0.1267 20.7049 -8.6240 -10.4162 8.9337 -4.4240 -1.3132 0.0000 -0.0000 0.0000 -70.3659 11.3284 -8.5170 79.5803 -59.5858 -50.9888 -0.0000 0.0000 -44.2247 -5.0800 32.4306 -2.7294 -7.1250 0.0000 -0.0000 -40.6595 57.4856 -13.9585 0.0000 -0.0000 0.0000 79.6288 -6.1882 4.1901 -27.7039 38.8423 -9.9375 0.0000 -0.0000 -2.8272 -53.9983 41.0293 -42.0967 7.1250 -0.0000 -0.0000 -8.3363 25.5152 -11.1956
6.5398 15.9237 10.0782 21.8243 55.1595 19.4889 0.0000 0.0000 0.0000 -18.0571 6.7033 10.9158 2.5190 9.8724 28.5644 0.5119 -4.3889 15.8358 4.5008 -12.7985 -38.6188 0.0000 0.0000 0.0000 13.9282 -0.6517 -43.0691 -12.3809 -18.5471 67.1912 -0.4407 -3.4118 -14.2584 -0.5610 4.7976 -13.3321 -7.0935 2.8872 9.1395 -0.4794 3.6366 8.0270 3.2259 1.6226 2.9056 -15.7013 -6.9942 0.1735 21.6449 -8.1994 -10.1424 9.3754 -4.2158 -1.2311 -0.0000 0.0000 0.0000 -69.4637 11.7926 -9.3834 75.2782 -59.1650 -47.2863 -0.0000 0.0000 -46.2795 -5.8465 32.9645 -3.1890 -7.1250 0.0000 -0.0000 -41.8923 57.7297 -14.7466 -0.0000 0.0000 0.0000 79.2474 -6.6622 5.2454 -28.5927 39.6562 -10.4998 0.0000 -0.0000 -4.2489 -54.0873 40.1555 -41.6829 7.1250 -0.0000 -0.0000 -8.7529 24.7026 -11.7056
7.0330 16.0015 10.4443 21.2949 55.3042 19.0830 0.0000 0.0000 0.0000 -17.3481 7.2668 13.7040 2.2632 9.3941 27.0361 0.4759 2.7249 12.3800 5.3146 -13.7296 -42.1647 0.0000 0.0000 0.0000 13.8073 -0.6930 -43.2733 -10.9426 -17.9069 62.5952 -0.4822 -2.4063 -14.2154 -0.2263 3.0618 -8.4508 -6.5812 2.5935 8.9782 -0.2679 3.2351 7.4543 3.1834 1.4532 2.4318 -15.7497 -6.6277 1.0267 21.0426 -7.9427 -9.4587 9.2082 -4.1103 -1.2727 -0.0000 0.0000 0.0000 -68.8281 13.1112 -10.4202 71.3801 -58.6486 -43.9478 -0.0000 0.0000 -48.0668 -9.3243 33.2527 -5.1446 -7.1250 0.0000 -0.0000 -45.3346 57.1907 -15.6913 -0.0000 0.0000 0.0000 78.6277 -8.2609 6.8284 -29.8804 40.7907 -11.3314 0.0000 -0.0000 -6.0391 -53.8836 39.6810 -41.1890 7.1250 -0.0000 -0.0000 -8.8574 24.1071 -11.8029
7.5188 16.0497 10.8083 21.0456 55.3052 19.0444 0.0000 0.0000 0.0000 -16.6525 8.2657 16.1099 2.0511 8.9717 25.7067 0.0901 10.4403 8.6819 5.0678 -13.4598 -41.1149 0.0000 0.0000 0.0000 13.5570 -0.6614 -43.5138 -9.5400 -17.1429 57.9395 -0.4565 -2.3039 -13.8117 -0.2763 3.3812 -9.3420 -5.7200 2.6357 8.3634 -0.6194 3.3817 7.3413 2.3540 1.5609 2.6890 -14.1593 -7.2852 -0.1763 20.3451 -8.7633 -8.8258 8.5865 -4.4764 -0.8549 -0.0000 -0.0000 0.0000 -67.0687 12.8847 -10.9165 67.5332 -58.0041 -40.6735 -0.0000 0.0000 -50.1657 -11.3794 35.2140 -6.6198 -7.1250 0.0000 -0.0000 -49.2575 58.1422 -18.7277 -0.0000 -0.0000 0.0000 79.3012 -9.0835 7.0560 -31.3244 42.0019 -12.2864 0.0000 -0.0000 -7.3079 -53.4521 39.5666 -40.6731 7.1250 -0.0000 -0.0000 -8.7017 23.7388 -11.5642
8.0000 16.0905 11.1782 21.1723 55.2144 19.3726 0.0000 0.0000 0.0000 -16.0157 9.2934 18.3383 1.8367 8.5173 24.2966 -0.5450 16.4296 4.7898 3.6132 -11.6271 -34.4251 0.0000 0.0000 0.0000 13.0093 -0.4260 -43.6622 -8.2229 -16.2807 53.3615 -0.3947 -2.6741 -13.1519 -0.3671 3.8917 -10.7722 -5.9594 2.3560 7.5958 -0.3230 3.0164 7.0219 2.8438 1.3550 2.7790 -14.4961 -7.3629 -0.6725 20.4313 -8.9028 -8.1909 8.6235 -4.5050 -0.5447 -0.0000 0.0000 0.0000 -67.4385 14.0075 -12.3930 65.5086 -57.6075 -38.9602 -0.0000 0.0000 -52.9213 -12.9240 36.2331 -7.7242 -7.1250 0.0000 -0.0000 -51.7741 58.4872 -20.5002 -0.0000 0.0000 0.0000 78.1266 -9.9685 8.7331 -32.6161 43.0329 -13.1593 0.0000 -0.0000 -8.2620 -53.0881 39.5915 -40.3129 7.1250 -0.0000 -0.0000 -8.5199 23.5527 -11.3046
8.4805 16.1232 11.5518 21.5112 55.0324 19.8241 0.0000 0.0000 0.0000 -15.4527 10.1508 20.5181 1.6497 8.0949 23.0026 -0.8480 18.7141 3.4027 2.4268 -9.7035 -28.0219 0.0000 0.0000 0.0000 12.2349 -0.0157 -43.5670 -7.0016 -15.3332 48.8804 -0.3119 -3.2717 -12.2710 -0.5659 4.8181 -13.3906 -6.2628 2.2079 6.8506 -0.2427 2.8423 6.8539 3.1324 1.2445 3.0158 -14.8592 -7.1073 -0.4017 20.4691 -8.6103 -8.0379 8.7221 -4.3631 -0.5808 0.0000 0.0000 0.0000 -67.5438 14.7922 -13.5111 64.2592 -57.3420 -37.9068 -0.0000 0.0000 -55.8125 -12.9474 36.7630 -7.8346 -7.1250 0.0000 -0.0000 -52.4209 58.8368 -21.3132 0.0000 0.0000 0.0000 77.3962 -10.3820 10.0481 -33.7300 43.8837 -13.9256 0.0000 -0.0000 -8.6815 -53.0971 39.5499 -40.2973 7.1250 -0.0000 -0.0000 -8.5413 23.5157 -11.3307
8.9555 16.1425 11.9266 22.1526 54.7590 20.4563 0.0000 0.0000 0.0000 -15.0813 10.8758 22.6703 1.4969 7.7283 21.8920 -0.7665 18.6798 4.6251 2.3689 -9.5955 -27.6764 0.0000 0.0000 0.0000 11.2052 0.4282 -43.3054 -5.8976 -14.3283 44.5692 -0.2315 -3.6701 -11.2013 -0.8852 5.9975 -16.7772 -6.6954 2.1497 6.1586 -0.3255 2.7970 6.7874 3.3155 1.1946 3.3252 -15.0075 -6.8188 -0.2266 19.9625 -8.3215 -7.5926 8.5913 -4.2106 -0.5627 0.0000 -0.0000 0.0000 -67.6173 15.3913 -14.3363 63.9018 -57.2631 -37.6060 -0.0000 0.0000 -57.8772 -12.6376 37.5941 -7.7889 -7.1250 0.0000 -0.0000 -53.1642 59.4601 -22.5516 0.0000 -0.0000 0.0000 76.9509 -10.6289 11.3347 -35.0080 44.8178 -14.8190 0.0000 -0.0000 -8.9328 -53.3705 39.3345 -40.4496 7.1250 -0.0000 -0.0000 -8.7589 23.4564 -11.6197
9.4207 16.1469 12.3025 23.0933 54.4331 21.2504 0.0000 0.0000 0.0000 -14.9158 11.4775 24.6115 1.4108 7.5126 21.2431 -0.5266 17.1633 6.0233 2.8401 -10.4316 -30.3860 0.0000 0.0000 0.0000 9.8973 0.9397 -42.9247 -4.9377 -13.3133 40.5528 -0.1411 -4.2678 -9.9531 -1.2085 6.9741 -19.6388 -7.2280 2.1781 5.5690 -0.5833 2.8759 6.7932 3.3647 1.2062 3.6485 -14.0501 -7.3107 -1.1789 19.6763 -8.9104 -7.3203 8.2542 -4.4684 -0.2828 0.0000 -0.0000 0.0000 -67.5411 15.7135 -14.7976 64.1360 -57.3150 -37.8031 -0.0000 0.0000 -58.7140 -12.9404 38.3751 -8.1182 -7.1250 0.0000 -0.0000 -54.4112 59.8932 -23.8639 0.0000 -0.0000 0.0000 76.8408 -10.8157 12.4101 -36.4402 45.8136 -15.8373 0.0000 -0.0000 -9.0547 -53.7638 39.1765 -40.7607 7.1250 -0.0000 -0.0000 -9.0099 23.5265 -11.9642
9.8732 16.1353 12.6802 24.0242 53.9786 21.9994 0.0000 0.0000 0.0000 -14.8455 12.0454 26.1211 1.4202 7.5366 21.3151 -0.3102 15.4559 7.1100 3.3433 -11.2310 -33.0630 0.0000 0.0000 0.0000 8.3057 2.0965 -42.3827 -4.1332 -12.3356 36.9296 -0.0539 -5.4010 -9.1771 -1.4508 7.6137 -21.5468 -8.0097 2.2753 5.0927 -0.7696 3.0364 6.7839 3.6195 1.2486 3.8728 -13.8082 -7.3590 -1.3269 19.4030 -8.9751 -7.2584 8.1132 -4.4934 -0.2585 -0.0000 0.0000 0.0000 -67.8474 15.8728 -15.1787 64.8428 -57.4681 -38.3984 -0.0000 0.0000 -58.4093 -13.1926 38.6847 -8.3354 -7.1250 0.0000 -0.0000 -55.0278 60.0286 -24.4216 -0.0000 0.0000 0.0000 76.6224 -10.7876 13.4209 -37.6983 46.6455 -16.7459 0.0000 -0.0000 -9.1082 -54.3516 39.0052 -41.2688 7.1250 -0.0000 -0.0000 -9.3592 23.7017 -12.4512
10.3185 16.1088 13.0534 25.0027 53.5302 22.7752 0.0000 0.0000 0.0000 -14.9649 12.3638 27.1111 1.5624 7.8880 22.3743 -0.1225 13.6355 7.9902 3.5795 -11.5787 -34.2576 0.0000 0.0000 0.0000 6.8223 3.1562 -41.8968 -3.5098 -11.4778 33.9089 0.0279 -6.6524 -8.7564 -1.8259 8.4936 -24.2236 -9.0548 2.3368 4.7661 -0.8000 3.1263 6.7014 4.1773 1.2468 3.9269 -13.9820 -7.4640 -2.0447 19.7105 -9.1065 -6.6404 8.1880 -4.5129 0.0885 -0.0000 -0.0000 0.0000 -68.8635 16.1959 -15.6297 66.6948 -57.8449 -39.9632 -0.0000 0.0000 -57.3622 -12.3409 38.2193 -7.7084 -7.1250 0.0000 -0.0000 -53.6933 59.9403 -23.4907 -0.0000 -0.0000 0.0000 76.1204 -10.5090 14.4892 -38.6612 47.2564 -17.4496 0.0000 -0.0000 -9.2561 -54.7386 38.9992 -41.6716 7.1250 -0.0000 -0.0000 -9.5451 23.9288 -12.7224
